<svg xmlns="http://www.w3.org/2000/svg" width="24" height="24" viewBox="0 0 24 24">
    <g fill="none" fill-rule="evenodd">
        <g fill="#292929" fill-rule="nonzero">
            <g>
                <g>
                    <g>
                        <g>
                            <g>
                                <path d="M5.25 11.906v-.469c0-.103.084-.187.188-.187h12.656c.362 0 .656.294.656.656v.469c0 .104-.084.188-.188.188H5.906c-.362 0-.656-.294-.656-.657z" transform="translate(-600.000000, -2024.000000) translate(136.000000, 1541.000000) translate(0.000000, 186.000000) translate(297.000000, 0.000000) translate(73.000000, 289.000000) translate(94.000000, 8.000000)"/>
                                <path d="M5.156 12v-.469c0-.103.084-.187.188-.187H18c.362 0 .656.294.656.656v.469c0 .103-.084.187-.187.187H5.812c-.362 0-.656-.294-.656-.656z" transform="translate(-600.000000, -2024.000000) translate(136.000000, 1541.000000) translate(0.000000, 186.000000) translate(297.000000, 0.000000) translate(73.000000, 289.000000) translate(94.000000, 8.000000) translate(11.906250, 12.000000) rotate(-270.000000) translate(-11.906250, -12.000000)"/>
                            </g>
                        </g>
                    </g>
                </g>
            </g>
        </g>
    </g>
</svg>
