<svg width="33" height="32" viewBox="0 0 33 32" xmlns="http://www.w3.org/2000/svg">
    <g fill="#6F6F6F" fill-rule="nonzero">
        <path d="M15.755 4.932a1.813 1.813 0 0 1 1.609-.5l7.58 1.39c.741.135 1.32.715 1.457 1.455l1.39 7.581a1.813 1.813 0 0 1-.501 1.609L15.28 28.476a1.813 1.813 0 0 1-2.563 0l-8.972-8.972a1.812 1.812 0 0 1 0-2.563L15.755 4.932zm1.121 1.122L4.868 18.062a.227.227 0 0 0-.037.272l.037.049 8.971 8.971a.227.227 0 0 0 .272.037l.049-.037 12.008-12.008a.227.227 0 0 0 .066-.147l-.003-.055-1.39-7.58a.227.227 0 0 0-.13-.166l-.052-.017-7.581-1.39a.227.227 0 0 0-.158.029l-.044.034z"/>
        <path d="M19.549 9.01a3.469 3.469 0 1 1 0 6.938 3.469 3.469 0 0 1 0-6.938zm0 1.586a1.883 1.883 0 1 0 0 3.766 1.883 1.883 0 0 0 0-3.766z"/>
    </g>
</svg>
