<svg xmlns="http://www.w3.org/2000/svg" width="10" height="10" viewBox="0 0 10 10">
    <g fill="none" fill-rule="evenodd">
        <g fill="#292929" fill-rule="nonzero">
            <g>
                <g>
                    <g>
                        <g>
                            <path d="M7.83 8.869l.28-5.602h.015c.538 0 .975-.44.975-.98 0-.542-.437-.98-.975-.98H6.428l-.14-.565C6.18.306 5.79 0 5.342 0h-1.57c-.44 0-.827.297-.942.726l-.154.58H.975c-.538 0-.975.44-.975.98 0 .542.437.98.975.98h.016l.278 5.603c.026.521.454.93.974.931h4.615c.519 0 .947-.41.973-.931zM3.46.895c.038-.142.167-.242.314-.242h1.57c.149 0 .279.102.315.248l.101.406H3.347L3.46.895zM.65 2.287c0-.18.146-.327.325-.327h7.15c.18 0 .325.146.325.327 0 .18-.146.326-.325.326H.975c-.18 0-.325-.146-.325-.326zm1.268 6.55l-.276-5.57h5.817l-.276 5.57c-.01.174-.152.31-.325.31H2.242c-.174 0-.317-.137-.325-.31z" transform="translate(-1077.000000, -372.000000) translate(285.000000, 325.000000) translate(0.000000, 3.000000) translate(780.000000, 35.000000) translate(12.600000, 9.100000)"/>
                            <path d="M6.191 4.573c-.086-.004-.17.026-.234.084-.064.059-.103.14-.107.227l-.13 2.613c-.009.18.13.334.309.343.18.009.332-.13.341-.31l.13-2.614c.004-.086-.026-.171-.084-.236-.057-.064-.139-.102-.225-.107zM2.909 4.573c-.086.005-.168.043-.225.107-.058.065-.088.15-.084.236l.13 2.614c.011.179.163.316.341.31.086-.004.168-.043.225-.107.058-.064.088-.15.084-.236l-.13-2.613c-.01-.18-.162-.319-.341-.31zM4.55 4.573c-.18 0-.325.147-.325.327v2.613c0 .18.146.327.325.327.18 0 .325-.146.325-.327V4.9c0-.18-.146-.327-.325-.327z" transform="translate(-1077.000000, -372.000000) translate(285.000000, 325.000000) translate(0.000000, 3.000000) translate(780.000000, 35.000000) translate(12.600000, 9.100000)"/>
                        </g>
                    </g>
                </g>
            </g>
        </g>
    </g>
</svg>
