<svg xmlns="http://www.w3.org/2000/svg" width="76" height="59" viewBox="0 0 76 59">
    <g fill="none" fill-rule="evenodd">
        <g>
            <g>
                <g>
                    <g>
                        <path fill="#FFF" d="M72.825 45.3h-1.2c-.08 6.64-5.49 12-12.15 12-6.609 0-11.985-5.276-12.146-11.846l-.003-.155-.601.001c.018-.524.066-1.04.144-1.546h-.062l.001-.004h-1.365v.005H28.563l-.001-.005h-1.358v.004h-.012c.07.557.107 1.124.107 1.7h-1.279c-.16 6.57-5.537 11.846-12.146 11.846-6.609 0-11.985-5.276-12.146-11.846H1.2c0-1.912.402-3.729 1.124-5.369v-.067l.05-.109v-2.736l-.006.01c.232-3.031 1.403-5.799 3.221-8.014l.252-.299.168-.19.285-.308.27-.276.207-.203.34-.315.291-.254.31-.256.377-.293.316-.23.417-.285.264-.17.397-.24.413-.232.345-.18.35-.171.474-.213.353-.145.455-.172.347-.12c1.164-.382 2.394-.621 3.669-.694-.833-.366-1.414-1.199-1.414-2.167 0-1.309 1.06-2.37 2.37-2.37h2.31c-.02-.077-.03-.159-.03-.243V0l1.5.949 1.5-.949 1.5.949 1.5-.949 1.5.949 1.5-.949 1.5.949 1.5-.949 1.5.949 1.5-.949v19.143c0 .084-.01.166-.03.244h.323c1.308 0 2.369 1.06 2.369 2.369 0 1.308-1.06 2.369-2.37 2.369l-5.286-.001v9.703c0 1.152.073 2.205.216 3.16l18.94-.002c.329-.452.683-.885 1.061-1.296l1.831-6.831-2.812-17.595h-5.988c-.748 0-1.354-.605-1.354-1.353s.606-1.354 1.354-1.354H53.17c.748 0 1.354.606 1.354 1.354 0 .393-.167.747-.434.994 2.987 3.762 5.56 7.299 7.72 10.61 2.118 3.245 3.981 6.49 5.59 9.735.27.547.137 1.189-.287 1.585l.001 2.121c3.335 2.27 5.564 6.043 5.71 10.345z" transform="translate(-277.000000, -537.000000) translate(0.000000, 537.000000) translate(271.000000, 0.000000) translate(6.470000, 0.000000)"/>
                        <path fill="#FFF" fill-rule="nonzero" d="M55.558 8.999c.108.283.167.59.167.911 0 .262-.04.518-.115.76l-.055.153.74.945c2.27 2.926 4.285 5.716 6.047 8.37l.474.72c2.144 3.284 4.03 6.57 5.66 9.858.391.79.34 1.701-.087 2.426l-.075.117.001 1.08.069.05c3.292 2.495 5.372 6.306 5.623 10.5l.017.37c.023.679-.52 1.241-1.2 1.241l-.067-.001-.041.366c-.83 6.467-6.283 11.479-12.928 11.631l-.313.004c-6.933 0-12.651-5.292-13.29-12.089l-.005-.043-.037-.018c-.346-.193-.586-.55-.615-.965l-.002-.126.014-.309-.098.005H28.564l-.074-.005.01.503c0 .663-.537 1.2-1.2 1.2h-.16l-.007.072c-.768 6.54-6.257 11.617-12.944 11.771l-.314.004C7.047 58.5 1.398 53.367.617 46.726l-.026-.24-.063-.039c-.287-.194-.485-.509-.522-.871L0 45.453c0-2.041.421-4.025 1.226-5.851l-.078.183.004-.024.022-.081v-2.362l-.006-.103.004-.124c.246-3.214 1.474-6.228 3.5-8.696l.27-.319.186-.21.308-.333.29-.296.23-.224.366-.34.316-.274.338-.279.405-.314.347-.252.445-.304.292-.187.43-.26.445-.248.375-.196.385-.187.508-.227.387-.16.488-.183.362-.124c.48-.158.967-.292 1.46-.403l.206-.043-.038-.103c-.107-.308-.173-.634-.192-.97l-.006-.203c0-1.971 1.598-3.57 3.57-3.57h1.079V9h1.2v10.143c0 .042.004.084.009.124l.023.12h-2.312c-1.308 0-2.369 1.06-2.369 2.369 0 .968.581 1.8 1.414 2.167-1.275.073-2.505.312-3.669.695l-.347.119-.455.172-.353.145-.473.213-.35.17-.346.181-.413.232-.397.24-.264.17-.417.285-.316.23-.377.293-.31.256-.29.254-.34.315-.208.203-.27.276-.285.308-.168.19-.252.299c-1.818 2.215-2.989 4.983-3.22 8.013l.005-.009v2.736l-.05.11v.066c-.722 1.64-1.124 3.457-1.124 5.368l.529.001C1.89 52.024 7.266 57.3 13.875 57.3c6.609 0 11.985-5.277 12.146-11.847H27.3c0-.575-.036-1.142-.107-1.699h.012v-.004l1.359.005 16.879-.004 1.364.003h.062c-.078.506-.126 1.022-.144 1.546l.601-.001.003.155c.161 6.57 5.537 11.846 12.146 11.846 6.66 0 12.07-5.36 12.15-12h1.2c-.146-4.302-2.375-8.075-5.71-10.345l-.001-2.12c.424-.397.558-1.04.287-1.586-1.609-3.245-3.472-6.49-5.59-9.736-2.16-3.31-4.733-6.847-7.72-10.61.267-.246.434-.6.434-.993 0-.35-.134-.67-.352-.911zm-14.18 0c-.22.24-.353.56-.353.911 0 .748.606 1.354 1.354 1.354l5.988-.001 2.812 17.595-1.831 6.831c-.378.411-.732.844-1.061 1.296l-18.94.001c-.143-.954-.215-2.007-.215-3.16l-.001-9.702h5.287c1.308 0 2.369-1.06 2.369-2.368 0-1.309-1.06-2.37-2.37-2.37h-.323c.02-.077.03-.159.03-.243V9h1.2v9.303l.195.057c1.375.445 2.384 1.702 2.463 3.206l.005.19c0 1.97-1.598 3.569-3.57 3.569l-4.087-.002.002 8.504c0 .625.022 1.218.066 1.777l.016.182 17.278-.001.178-.223.292-.347.1-.112 1.692-6.309-2.611-16.332-4.964.002c-1.354 0-2.462-1.054-2.549-2.386l-.005-.168c0-.321.06-.628.167-.911z" transform="translate(-277.000000, -537.000000) translate(0.000000, 537.000000) translate(271.000000, 0.000000) translate(6.470000, 0.000000)"/>
                        <g>
                            <g>
                                <path fill="#C2945C" d="M0 0l.938.974L1.875 0l.938.974L3.75 0l.938.974L5.625 0l.938.974L7.5 0l.938.974L9.374 0l.938.974L11.25 0l.938.974.937-.974.938.974L15 0v19.48c0 .426-.344.77-.77.77H.77c-.426 0-.77-.344-.77-.77V0z" transform="translate(-277.000000, -537.000000) translate(0.000000, 537.000000) translate(271.000000, 0.000000) translate(6.470000, 0.000000) translate(0.530000, 0.000000) translate(19.000000, 0.000000)"/>
                                <path fill="#DB0007" d="M0 16.5h15v2.98c0 .426-.344.77-.77.77H.77c-.426 0-.77-.344-.77-.77V16.5z" transform="translate(-277.000000, -537.000000) translate(0.000000, 537.000000) translate(271.000000, 0.000000) translate(6.470000, 0.000000) translate(0.530000, 0.000000) translate(19.000000, 0.000000)"/>
                                <path fill="#FFBC0D" d="M15 5.127c-.123-.027-.247-.04-.373-.04-1.596 0-3.022 2.057-3.954 5.273-.932-3.216-2.357-5.273-3.955-5.273-2.806 0-5.083 6.844-5.083 15.288h2.26c0-7.84 1.265-14.197 2.823-14.197 1.56 0 2.825 5.868 2.825 13.105h2.26c0-7.237 1.265-13.105 2.824-13.105.127 0 .251.042.373.123V5.127z" transform="translate(-277.000000, -537.000000) translate(0.000000, 537.000000) translate(271.000000, 0.000000) translate(6.470000, 0.000000) translate(0.530000, 0.000000) translate(19.000000, 0.000000)"/>
                            </g>
                            <path fill="#606060" fill-rule="nonzero" d="M46.12 39.693H27.45v-2.707h20.314c-.642.834-1.195 1.742-1.645 2.707z" transform="translate(-277.000000, -537.000000) translate(0.000000, 537.000000) translate(271.000000, 0.000000) translate(6.470000, 0.000000) translate(0.530000, 0.000000)"/>
                            <g fill="#FFBC0D" fill-rule="nonzero">
                                <path d="M57.675 24.231c2.754 0 5.309.856 7.414 2.316v9.258c0 .082-.008.164-.022.245-.132.712-.8 1.19-1.51 1.092l-.063-.01-15.108-2.79c-.173.545-.684.94-1.286.94h-2.318c.226-1.447.687-2.814 1.344-4.062h.125l.119-.443c2.256-3.913 6.474-6.546 11.305-6.546zm-30.568-8.805v9.928c0 2.38.307 4.34.92 5.878.057-.008.115-.012.173-.012h16.42c-.59 1.265-1 2.63-1.203 4.061H26.54c-.788-7.227-6.896-12.851-14.314-12.851-4.933 0-9.287 2.487-11.882 6.279.57-7.431 6.78-13.283 14.357-13.283h12.407zM12.225 23.78c6.671 0 12.174 5.02 12.955 11.501H.3v-3.736c2.033-4.576 6.608-7.765 11.925-7.765zM50.513.498c3.655 4.49 6.746 8.67 9.273 12.542 2.118 3.245 3.981 6.49 5.59 9.736.27.547.137 1.189-.287 1.585v.578c-2.166-1.306-4.702-2.058-7.414-2.058-4.076 0-7.757 1.698-10.376 4.427l1.855-6.924-2.926-18.31c-.11-.684.316-1.339.984-1.518l1.626-.435c.062-.017.183.018.362.106.332-.09.594-.228.888-.075.16.083.306.2.425.346z" transform="translate(-277.000000, -537.000000) translate(0.000000, 537.000000) translate(271.000000, 0.000000) translate(6.470000, 0.000000) translate(0.530000, 0.000000) translate(1.500000, 8.473232)"/>
                            </g>
                            <path fill="#292929" fill-rule="nonzero" d="M40.5 8.556H54V11.264H40.5zM13.95 19.387H36.262V24.125H13.95z" transform="translate(-277.000000, -537.000000) translate(0.000000, 537.000000) translate(271.000000, 0.000000) translate(6.470000, 0.000000) translate(0.530000, 0.000000)"/>
                            <g fill-rule="nonzero">
                                <g transform="translate(-277.000000, -537.000000) translate(0.000000, 537.000000) translate(271.000000, 0.000000) translate(6.470000, 0.000000) translate(0.530000, 0.000000) translate(1.200000, 33.000000)">
                                    <circle cx="12.15" cy="12.15" r="12.15" fill="#292929"/>
                                    <circle cx="12" cy="12" r="5.1" fill="#F1F1F1"/>
                                    <path fill="#FFF" d="M16.03 8.1c1.027.948 1.67 2.305 1.67 3.813 0 2.865-2.322 5.187-5.187 5.187-1.508 0-2.865-.643-3.813-1.67.736.37 1.568.578 2.448.578 3.015 0 5.46-2.445 5.46-5.46 0-.871-.204-1.695-.567-2.426L16.03 8.1z"/>
                                    <path fill="#292929" fill-opacity=".1" d="M6.3 12.3H20.1V13.8H6.3z"/>
                                </g>
                            </g>
                            <path fill="#FFBC0D" fill-rule="nonzero" d="M13.725 32.253c7.207 0 13.05 5.91 13.05 13.2H.675c0-7.29 5.843-13.2 13.05-13.2z" transform="translate(-277.000000, -537.000000) translate(0.000000, 537.000000) translate(271.000000, 0.000000) translate(6.470000, 0.000000) translate(0.530000, 0.000000)"/>
                            <g fill-rule="nonzero" transform="translate(-277.000000, -537.000000) translate(0.000000, 537.000000) translate(271.000000, 0.000000) translate(6.470000, 0.000000) translate(0.530000, 0.000000) translate(46.800000, 33.000000)">
                                <circle cx="12.15" cy="12.15" r="12.15" fill="#292929"/>
                                <circle cx="12" cy="12" r="5.1" fill="#F1F1F1"/>
                                <path fill="#FFF" d="M15.73 8.1c1.027.948 1.67 2.305 1.67 3.813 0 2.865-2.322 5.187-5.187 5.187-1.508 0-2.865-.643-3.813-1.67.736.37 1.568.578 2.448.578 3.015 0 5.46-2.445 5.46-5.46 0-.871-.204-1.695-.567-2.426L15.73 8.1z"/>
                                <path fill="#292929" fill-opacity=".1" d="M6 12.3H19.8V13.8H6z"/>
                            </g>
                            <path fill="#FFBC0D" fill-rule="nonzero" d="M59.25 32.7c7.06 0 12.813 5.6 13.05 12.6H46.2c.237-7 5.99-12.6 13.05-12.6z" transform="translate(-277.000000, -537.000000) translate(0.000000, 537.000000) translate(271.000000, 0.000000) translate(6.470000, 0.000000) translate(0.530000, 0.000000)"/>
                        </g>
                    </g>
                </g>
            </g>
        </g>
    </g>
</svg>
